<svg xmlns="http://www.w3.org/2000/svg" width="821.88" height="485.064" viewBox="0 0 410.94 242.532"><path data-name="シェイプ 4" d="M.04 99.883L.01 82.105 410.94-.013l-1.18 2.367zm0 34.323L.02 116.42 70.5 98.248l-1.19 2.361zm.1 94.142v-2.674l4.08-.318 1.09-.924v-35.909l-1.09-.925-4.08-.38v-2.612h16.22v2.612l-4.09.38-1.09.925v35.909l1.09.924 4.09.318v2.674H.14zm23.11 0v-2.354l3.46-.317 1.09-1.051v-23.59h-4.55v-2.042l7.42-2.323h2.44v3.564a46.422 46.422 0 0 1 6.17-3.041 11.966 11.966 0 0 1 4.12-.875 8.032 8.032 0 0 1 6.4 2.549q2.2 2.544 2.21 7.384v18.369l1.09 1.051 3.43.317v2.357H42.56v-2.352l3.06-.317 1.09-1.051V207.37q0-3.661-1.49-5.191-1.47-1.527-4.97-1.526a11.759 11.759 0 0 0-3.31.523 21.546 21.546 0 0 0-3.83 1.608v21.839l1.09 1.051 3.06.317v2.357H23.25zm58.25-30.623v6.155h-2l-1.57-3.438a12.717 12.717 0 0 0-2.39-1.029 7.723 7.723 0 0 0-2.26-.346 5.575 5.575 0 0 0-3.83 1.219 4.291 4.291 0 0 0-1.37 3.4 4.389 4.389 0 0 0 1.1 3.027 14.23 14.23 0 0 0 4.22 2.777q.48.249 1.5.719a24.523 24.523 0 0 1 5.14 3 6.093 6.093 0 0 1 1.77 2.357 7.8 7.8 0 0 1 .61 3.135 8.625 8.625 0 0 1-3.1 7.039q-3.105 2.545-8.61 2.545a27.479 27.479 0 0 1-4.33-.33 18.059 18.059 0 0 1-3.81-1.013v-7.218h1.91l1.85 4.343a11 11 0 0 0 2.65 1.156 9.753 9.753 0 0 0 2.67.373 6.2 6.2 0 0 0 4.27-1.419 4.743 4.743 0 0 0 1.61-3.73 4.679 4.679 0 0 0-1.11-3.2q-1.095-1.26-5.26-3.2-4.71-2.154-6.4-4.057a6.791 6.791 0 0 1-1.7-4.715 8.011 8.011 0 0 1 2.91-6.617q2.895-2.338 8.19-2.341a20.2 20.2 0 0 1 3.93.362 16.709 16.709 0 0 1 3.41 1.043m6.64 44.821v-2.325l3.46-.348 1-1.02v-37.82h-4.46v-2.036l7.42-2.322h2.4v3.564a22.609 22.609 0 0 1 4.92-2.96 11.667 11.667 0 0 1 4.51-.956 10.845 10.845 0 0 1 8.81 4.266q3.45 4.264 3.45 11.015 0 7.673-4.31 12.3a14.84 14.84 0 0 1-11.42 4.631c-.81 0-1.7-.044-2.68-.14s-2.06-.241-3.25-.432l-.03 10.888 1.1 1.02 4.08.348v2.325h-15zm9.82-17.986a20.965 20.965 0 0 0 2.92.8 14 14 0 0 0 2.54.254 9.425 9.425 0 0 0 7.68-3.615q2.925-3.609 2.93-9.565 0-5.507-2.54-8.755a8.2 8.2 0 0 0-6.79-3.246 9.881 9.881 0 0 0-3.15.541 19.909 19.909 0 0 0-3.59 1.687v21.9zm34.88-27.888h2.49v27.955l1.09 1.049 3.44.32v2.354H125.5v-2.353l3.38-.32 1.09-1.049v-23.593h-4.47v-2.038zm-.9-14.485a3.533 3.533 0 0 1 2.64 1.116 3.693 3.693 0 0 1 1.07 2.672 3.678 3.678 0 0 1-3.71 3.726 3.514 3.514 0 0 1-2.6-1.084 3.6 3.6 0 0 1-1.08-2.642 3.684 3.684 0 0 1 1.08-2.689 3.49 3.49 0 0 1 2.6-1.1m13.49 46.161v-2.35l3.4-.317 1.09-1.051v-23.59h-4.49v-2.042l7.42-2.323h2.44v6.111c1.03-1.081 2.12-2.148 3.25-3.2s2.33-2.087 3.58-3.1a2.58 2.58 0 0 1 .61-.129c.21-.021.54-.032.98-.032a8.826 8.826 0 0 1 1.9.207 10.593 10.593 0 0 1 1.94.652v5.6h-2.03a4.27 4.27 0 0 0-1.45-1.161 4.147 4.147 0 0 0-1.83-.4 5.8 5.8 0 0 0-3.23 1.162 19.221 19.221 0 0 0-3.72 3.613v18.623l1.09 1.051 4.46.317v2.357h-15.41zm52.49-6.91v3.6a23.414 23.414 0 0 1-5.9 2.9 19.93 19.93 0 0 1-6.15.988 13.11 13.11 0 0 1-10.29-4.442q-3.96-4.44-3.96-11.572 0-7.324 4.14-11.955a13.633 13.633 0 0 1 10.64-4.631 10.758 10.758 0 0 1 8.42 3.454q3.105 3.456 3.1 9.407c0 .532 0 .933-.01 1.209a6.737 6.737 0 0 1-.08.8h-20.71v.73q0 6.145 2.9 9.726a9.57 9.57 0 0 0 7.84 3.581 13.452 13.452 0 0 0 4.74-.922 26.144 26.144 0 0 0 5.32-2.867m-5.73-12.988v-1.018a9.314 9.314 0 0 0-1.71-6.026 5.987 5.987 0 0 0-4.94-2.093 7.18 7.18 0 0 0-5.51 2.586 10.613 10.613 0 0 0-2.6 6.549h14.76zm75.32 19.9v-2.678l4.02-.318 1.09-.924v-35.909l-1.09-.925-4.02-.38v-2.612h15.6v2.612l-3.65.38-1.09.925v36.833h14.44l.91-1.051 1.09-7.832h3.3v11.875h-30.6zm56.03-3.789a28.637 28.637 0 0 1-5.66 3.2 12.968 12.968 0 0 1-4.82 1.034 7.9 7.9 0 0 1-5.94-2.292 8.289 8.289 0 0 1-2.23-6.048 7.6 7.6 0 0 1 3.35-6.558q3.36-2.391 15.3-5.317v-2.068c0-2.74-.43-4.638-1.31-5.7s-2.39-1.591-4.55-1.591a11.472 11.472 0 0 0-2.41.254 15.533 15.533 0 0 0-2.46.765v5.473h-4.4a2.184 2.184 0 0 1-1.57-.426 2.265 2.265 0 0 1-.42-1.578q0-3.183 3.6-5.284a18.3 18.3 0 0 1 9.31-2.1c3.35 0 5.79.742 7.3 2.229s2.28 3.872 2.28 7.16v18.908l1.09 1.048 3.37.32v2.355h-8.99zm0-2.2V210.87q-8.01 2.262-10.53 4.141a5.879 5.879 0 0 0-2.51 4.931 5.38 5.38 0 0 0 1.39 3.9 4.914 4.914 0 0 0 3.73 1.45 10 10 0 0 0 3.45-.733 30.714 30.714 0 0 0 4.47-2.2m19.19-41.989h2.43v18.24a25.454 25.454 0 0 1 4.54-1.717 16.534 16.534 0 0 1 4.23-.575 11.4 11.4 0 0 1 9.14 4.122q3.495 4.125 3.5 10.746 0 8.466-4.7 12.811t-13.84 4.35h-8.23v-43.613h-4.93v-2.04zm2.43 44.981q1.005.032 1.89.049c.59.007 1.14.014 1.64.014q6.27 0 9.2-3.134t2.93-9.855c0-4.052-.86-7.172-2.6-9.359a8.961 8.961 0 0 0-7.44-3.277 14.5 14.5 0 0 0-2.53.252 25.622 25.622 0 0 0-3.09.8v24.514zm-106.69-42.346c-.01.007-.02.782-.02.787l-.56 1.736-.91 1.522s-.04.588-.04.915a28.924 28.924 0 0 1-1.01 3.046l-.19 1.731c.1.19-.86 1.613-.52 2.211a5.726 5.726 0 0 0-.48.716 9.576 9.576 0 0 1-.63 3.532 2.023 2.023 0 0 1 .07.632 3.794 3.794 0 0 1-.21 1.195v.423a6.709 6.709 0 0 1-.31 1.9l-.22 2.11-.38.562.28.63-.28 1.055.28.915-.57 2.183.29 1.615v.915l.08 1.4a3.9 3.9 0 0 1 .12.915.806.806 0 0 1-.2.563l.56.422-.56 1.4.56 1.477-.21.422.21.421-.21.422.21.213.63.562 1.2.14 1.82.775-.84 2.95-.56.845c-.75 1.128-1.48 1.688-2.18 1.688a4.021 4.021 0 0 1-2.25-1.195l-1.41-2.04-.63-1.265-.28-1.265-.64-2.11v-3.1l-.21-2.673.21-1.475-.14-.422-1.76 2.462h-.21l-.07.208-1.19 1.9-1.97 2.11-1.48 2.04-1.54 1.475c-.43.751-.92.322-1.48.882l-1.41.987-.84 1.123-1.55.492-.63.773-1.55.283-1.26.772h-.21l-.15.282-2.18-.282-2.6-1.828a5.485 5.485 0 0 1-1.33-2.6.952.952 0 0 0 .28-.245 2.672 2.672 0 0 1 .21-.248 5.539 5.539 0 0 0-.77-.35l-.64-1.407.36-.492-.36-.843.36-.985-.15-.177.5-2.04v-2.182l.49-.631v-1.477l.49-.915.14-1.055.14-.138v-.917l.71-1.123.13-.985.43-.7.21-.42.28-1.687.49-1.478.35-.352.14-.913.92-.985q.135-.354.63-1.477l1.76-.775 1.12-1.195 3.24-.913a7.837 7.837 0 0 0 1.2-.07l.49.283.14-.565 1.62-.14.56.212.49-.072.42.352 1.34.07.28-.212.35.282.7.073v.501l.28.208 1.41.282 1.06 1.2 1.4 1.054.35.7.07.07.29-.982.42-.915-.14-1.617 1.43-2.955-.09-1.125.39-.784.85-4.705.85-1.833c-.01-.035-.23-1.442-.21-1.468l.59-.926a.062.062 0 0 0 .03-.054l.86-3.7-.04-1.463.35-1.629.87-.806s.07-1.5.1-1.5c.68-.135.97-.7 1.57-.621a4.93 4.93 0 0 1 1.82.632 3.788 3.788 0 0 1 1.89 3.578l-1.17 2zm-11.67 22.311l-.29-.143a2.528 2.528 0 0 1-.88-.91c-.25-.424-.5-.843-.74-1.265a2.272 2.272 0 0 1-1.2-.915h-.42l-1.27-.774-1.62-.351-1.55.147-1.66.47-.44-.395-.55.208v.282l-.63.138a5.7 5.7 0 0 1-1.97 1.965l-.57 1.193-.56.418-.49 1.125-.21 2.313-.64.56v1.263l-.56.487-.04 1.686-1.18 2.331-.19 1.123-.13 1.828.42-.313-.42.772.35.49-.7 1.266.36.632.28.845.42.292.49.009.63-.562.56.072 1.2-.5.14-.422 1.33-.5.14-.423.84-.492v-.14l1.76-.745.84-.352.43-.917.91-.143 1.13-1.267-.21-.14.48-.493.7-1.479.63-.638.35-1.55 1.11-.35.79-1.111.29-.21v-1.265l1.06-.49zm19.49 16.033a3.532 3.532 0 0 1 2.64 1.115 3.7 3.7 0 0 1 1.08 2.673 3.693 3.693 0 0 1-3.72 3.725 3.533 3.533 0 0 1-2.6-1.083 3.6 3.6 0 0 1-1.08-2.642 3.684 3.684 0 0 1 1.08-2.689 3.5 3.5 0 0 1 2.6-1.1" fill="#fff" fill-rule="evenodd"/></svg>